<?xml version="1.0" encoding="UTF-8" standalone="no"?>
<svg
   xmlns:dc="http://purl.org/dc/elements/1.1/"
   xmlns:cc="http://creativecommons.org/ns#"
   xmlns:rdf="http://www.w3.org/1999/02/22-rdf-syntax-ns#"
   xmlns:svg="http://www.w3.org/2000/svg"
   xmlns="http://www.w3.org/2000/svg"
   xmlns:sodipodi="http://sodipodi.sourceforge.net/DTD/sodipodi-0.dtd"
   xmlns:inkscape="http://www.inkscape.org/namespaces/inkscape"
   width="358.583"
   height="117.744"
   viewBox="0 0 336.17177 110.38461"
   id="svg2"
   version="1.1"
   inkscape:version="0.91 r13725"
   sodipodi:docname="tktl_logo.svg">
  <metadata
     id="metadata32">
    <rdf:RDF>
      <cc:Work
         rdf:about="">
        <dc:format>image/svg+xml</dc:format>
        <dc:type
           rdf:resource="http://purl.org/dc/dcmitype/StillImage" />
      </cc:Work>
    </rdf:RDF>
  </metadata>
  <sodipodi:namedview
     pagecolor="#ffffff"
     bordercolor="#666666"
     borderopacity="1"
     objecttolerance="10"
     gridtolerance="10"
     guidetolerance="10"
     inkscape:pageopacity="0"
     inkscape:pageshadow="2"
     inkscape:window-width="2056"
     inkscape:window-height="1052"
     id="namedview30"
     showgrid="false"
     inkscape:zoom="1.8740431"
     inkscape:cx="322.30264"
     inkscape:cy="-75.997218"
     inkscape:window-x="0"
     inkscape:window-y="27"
     inkscape:window-maximized="0"
     inkscape:current-layer="svg2" />
  <defs
     id="defs4">
    <clipPath
       id="a">
      <path
         d="M0 254h269.136V0H0v254z"
         id="path7" />
    </clipPath>
    <clipPath
       id="b">
      <path
         d="M0 111.345h325.984V0H0v111.345z"
         id="path10" />
    </clipPath>
  </defs>
  <path
     inkscape:connector-curvature="0"
     style="fill:#f89000;fill-opacity:0.88235294"
     id="path14"
     d="m 53.353,110.383 11.04,0 0,-11.038 -11.04,0 0,11.04 z m 0,-99.345 11.04,0 0,-11.038 -11.04,0 0,11.038 z" />
  <g
     style="fill:#f89000;fill-opacity:0.88235294"
     id="g16"
     transform="matrix(0.51922,0,0,-0.51922,-11.235,120.843)"
     clip-path="url(#a)">
    <path
       inkscape:connector-curvature="0"
       style="fill:#f89000;fill-opacity:0.88235294"
       id="path18"
       d="m 248.41,91.57 c -8.183,18 -26.558,20.625 -38.058,28.125 -5.505,3.59 -7.735,10.797 -8.61,16.822 -5.42,-0.564 -14.44,-0.644 -18.75,10.31 -3.39,8.617 -1.985,22.893 -13.326,34.992 -10.314,11 -23,14.623 -34.642,13.806 14.267,-9.54 8.642,-23.92 -1.718,-23.92 -14.42,0 -18.454,17.368 -39.56,17.368 -4.83,0 -9.084,-1.508 -11.737,-3.262 11.82,-1.493 14.65,-11.186 18.342,-19.96 2.937,-6.97 8.187,-11.034 15.874,-13.16 -1.387,-0.798 -4.706,-1.78 -8.996,-1.78 -9.32,0 -15.815,4.906 -22.49,11.785 -5.875,6.052 -12.43,11.788 -23.416,11.788 -5.406,0 -9.544,-1.712 -10.977,-2.677 6.03,-0.95 14.94,-4.547 14.94,-10.927 0,-5.455 -6.034,-7.542 -10.978,-2.32 -5.506,5.814 -13.234,10.21 -22.078,10.21 -4.368,0 -8.738,-1.39 -10.594,-3.2 10.48,-1.21 16.687,-7.938 23.176,-22.944 3.662,-8.47 8.88,-16.48 22.01,-16.63 5.98,-0.072 14.464,2.772 19.446,-2.01 4.715,-4.526 3.132,-10.46 5.29,-15.272 2.712,-6.05 8.337,-9.166 19.337,-9.74 -9.126,-7.635 -30.94,-3.053 -38.366,4.747 0.977,-19.53 16.383,-37.05 46.967,-28.81 5.316,1.43 9.107,0.62 11.154,-4.76 2.808,-7.384 9.46,-8.61 15.746,-7.827 14.374,1.78 22.906,-1.115 31.18,-10.998 1.808,16.35 -9.884,25.963 -17.228,30.556 -6.995,4.376 -7.678,8.925 -7.765,12.45 5.062,-5.79 11.66,-8.245 18.524,-9.21 11.867,-1.67 20.367,-4.98 24.867,-11.344 1.314,17.98 -17.56,22.043 -19.875,29.606 5.94,-3.875 10.315,-5.284 16.5,-4.813 8.25,0.624 18.28,7.1 25.68,-5.577 9.444,6.14 21.82,3.95 30.127,-1.424 m -102.756,24.242 -21.26,0 0,21.26 21.26,0 0,-21.26 z" />
  </g>
  <g
     style="fill:#002e47;fill-opacity:0.32549021"
     id="g20"
     transform="matrix(0.51187,0,0,-0.51187,118.444,65.065)"
     clip-path="url(#b)">
    <path
       inkscape:connector-curvature="0"
       style="fill:#002e47;fill-opacity:0.32549021"
       id="path22"
       d="m 243.734,80.62 0,0.293 c 0,5.1 -3.17,8.66 -7.71,8.66 -4.515,0 -7.733,-3.583 -7.733,-8.71 l 0,-0.292 c 0,-5.1 3.17,-8.66 7.71,-8.66 4.516,0 7.735,3.61 7.735,8.71 m -3.658,0.024 c 0,-3.37 -1.684,-5.466 -4.05,-5.466 -2.368,0 -4.103,2.123 -4.103,5.492 l 0,0.17 c 0,3.368 1.686,5.467 4.077,5.467 2.368,0 4.077,-2.124 4.077,-5.494 l 0,-0.17 z m -15.705,5.37 4.294,0 0,3.268 -12.098,0 0,-3.266 4.295,0 0,-13.81 3.51,0 0,13.81 z m -7.915,-8.91 0,0.05 c 0,2.66 -1.608,3.93 -4.584,5.102 -2.66,1.097 -3.245,1.56 -3.245,2.538 l 0,0.025 c 0,0.88 0.755,1.49 1.976,1.49 1.32,0 2.566,-0.71 3.638,-1.588 l 1.975,2.682 c -1.56,1.414 -3.512,2.098 -5.514,2.098 -3.294,0 -5.587,-2.024 -5.587,-5 l 0,-0.048 c 0,-2.93 1.877,-4.076 4.902,-5.248 2.442,-0.928 2.93,-1.465 2.93,-2.318 l 0,-0.026 c 0,-1 -0.83,-1.683 -2.197,-1.683 -1.71,0 -3.1,0.926 -4.243,1.926 l -2.098,-2.61 a 9.16,9.16 0 0 1 6.315,-2.51 c 3.32,0 5.733,1.948 5.733,5.12 m -16.504,-4.9 3.536,0 0,17.075 -3.535,0 0,-17.075 z m -1.144,11.172 0,0.05 c 0,3.636 -2.414,5.855 -6.244,5.855 l -5.683,0 0,-17.077 3.532,0 0,5.195 2.002,0 c 3.588,0.074 6.392,2.048 6.392,5.976 m -3.56,-0.072 c 0,-1.588 -1.027,-2.735 -2.857,-2.735 l -1.978,0 0,5.517 1.93,0 c 1.878,0 2.904,-0.98 2.904,-2.76 l 0,-0.024 z m -9.796,-2.684 0,0.293 c 0,5.1 -3.17,8.66 -7.708,8.66 -4.516,0 -7.733,-3.583 -7.733,-8.71 l 0,-0.292 c 0,-5.1 3.167,-8.66 7.706,-8.66 4.515,0 7.734,3.61 7.734,8.71 m -3.657,0.024 c 0,-3.37 -1.684,-5.466 -4.05,-5.466 -2.368,0 -4.103,2.123 -4.103,5.492 l 0,0.17 c 0,3.368 1.686,5.467 4.076,5.467 2.37,0 4.077,-2.124 4.077,-5.494 l 0,-0.17 z m -17.096,-8.44 3.536,0 0,17.078 -3.536,0 0,-17.078 z m -11.67,0 10.44,0 0,3.243 -6.903,0 0,13.832 -3.536,0 0,-17.075 z m -6.306,6.782 5.563,10.296 -3.904,0 -3.39,-6.71 -3.366,6.71 -4.002,0 5.563,-10.344 0,-6.732 3.535,0 0,6.78 z m -18.39,-6.78 3.024,0 0,17.073 -3.462,0 0,-9.953 -6.542,9.954 -3.242,0 0,-17.075 3.462,0 0,10.318 6.76,-10.318 z m -16.312,0 3.535,0 0,17.073 -3.535,0 0,-17.075 z m -8.36,-0.245 c 2.54,0 4.514,0.95 6.074,2.12 l 0,7.904 -6.464,0 0,-3.07 3.1,0 0,-3.027 c -0.635,-0.465 -1.538,-0.71 -2.54,-0.71 -2.513,0 -4.44,1.98 -4.44,5.493 l 0,0.194 c 0,3.147 1.854,5.368 4.295,5.368 1.634,0 2.636,-0.634 3.538,-1.465 l 2.097,2.758 c -1.56,1.317 -3.193,1.998 -5.585,1.998 -4.638,0 -7.978,-3.632 -7.978,-8.684 l 0,-0.22 c 0,-5.347 3.315,-8.66 7.903,-8.66 m -12.757,0.243 3.024,0 0,17.076 -3.462,0 0,-9.953 -6.54,9.954 -3.244,0 0,-17.075 3.462,0 0,10.318 6.76,-10.318 z m -16.31,0 3.534,0 0,17.076 -3.54,0 0,-17.075 z m -1.727,4.9 0,0.05 c 0,2.66 -1.61,3.93 -4.585,5.1 -2.663,1.098 -3.25,1.56 -3.25,2.54 l 0,0.024 c 0,0.88 0.758,1.49 1.98,1.49 1.317,0 2.562,-0.71 3.635,-1.587 l 1.974,2.682 c -1.56,1.414 -3.51,2.098 -5.513,2.098 -3.294,0 -5.585,-2.024 -5.585,-5 l 0,-0.048 c 0,-2.93 1.878,-4.076 4.903,-5.248 2.442,-0.928 2.93,-1.465 2.93,-2.318 l 0,-0.026 c 0,-1 -0.83,-1.683 -2.198,-1.683 -1.71,0 -3.1,0.927 -4.245,1.927 l -2.097,-2.61 a 9.164,9.164 0 0 1 6.318,-2.51 c 3.32,0 5.733,1.948 5.733,5.12 m -22.984,-4.9 10.44,0 0,3.242 -6.904,0 0,13.833 -3.54,0 0,-17.075 z m -13.06,0 11.1,0 0,3.19 -7.59,0 0,3.812 6.588,0 0,3.193 -6.592,0 0,3.688 7.49,0 0,3.193 -11,0 0,-17.075 z m -6.065,0 3.536,0 0,17.075 -3.535,0 0,-6.857 -5.62,0 0,6.858 -3.535,0 0,-17.075 3.535,0 0,6.953 5.615,0 0,-6.953 z M 271.7,38.042 l -4.173,0 -5.588,-7.367 0,7.367 -3.537,0 0,-17.076 3.535,0 0,5.025 1.585,2 4.27,-7.023 4.148,0 -5.977,9.832 5.734,7.243 z m -160.446,-12.176 0,0.05 c 0,2.66 -1.61,3.93 -4.585,5.1 -2.66,1.098 -3.248,1.563 -3.248,2.54 l 0,0.023 c 0,0.877 0.757,1.486 1.978,1.486 1.32,0 2.564,-0.707 3.636,-1.586 l 1.975,2.685 c -1.56,1.414 -3.51,2.096 -5.51,2.096 -3.295,0 -5.587,-2.022 -5.587,-4.996 l 0,-0.05 c 0,-2.93 1.878,-4.075 4.903,-5.247 2.44,-0.926 2.93,-1.463 2.93,-2.32 l 0,-0.022 c 0,-1 -0.83,-1.686 -2.198,-1.686 -1.71,0 -3.098,0.927 -4.245,1.927 l -2.097,-2.61 c 1.878,-1.753 4.145,-2.51 6.318,-2.51 3.318,0 5.732,1.95 5.732,5.12 m -27.288,12.176 -11,0 0,-17.076 11.097,0 0,3.193 -7.588,0 0,3.807 6.588,0 0,3.193 -6.588,0 0,3.69 7.49,0 0,3.192 z m -49.36,-10.37 0,10.37 -3.51,0 0,-10.54 c 0,-2.366 -1.15,-3.538 -2.98,-3.538 -1.83,0 -2.978,1.195 -2.978,3.61 l 0,10.468 -3.535,0 0,-10.442 c 0,-4.61 2.536,-6.904 6.466,-6.904 3.954,0 6.538,2.268 6.538,6.977 m 5.464,10.37 -3.243,0 0,-17.078 3.46,0 0,10.318 6.762,-10.318 3.024,0 0,17.075 -3.46,0 0,-9.95 -6.546,9.95 z m 16.13,0 -3.535,0 0,-17.078 3.532,0 0,17.075 z m 4.914,0 -3.83,0 5.756,-17.175 3.27,0 5.756,17.174 -3.732,0 -3.61,-11.758 -3.61,11.758 z m 31.33,0 -6.417,0 0,-17.078 3.534,0 0,5.61 2.222,0 3.15,-5.61 4.046,0 -3.632,6.345 c 1.876,0.827 3.17,2.46 3.17,5.047 l 0,0.098 c 0,1.686 -0.514,3.025 -1.44,3.953 -1.073,1.07 -2.658,1.632 -4.635,1.632 M 92.1,34.85 c 1.807,0 2.857,-0.857 2.857,-2.566 l 0,-0.023 c 0,-1.535 -0.976,-2.563 -2.783,-2.563 l -2.612,0 0,5.153 2.54,0 z m 24.013,3.192 -3.535,0 0,-17.076 3.535,0 0,17.076 z m 13.316,0 -12.1,0 0,-3.268 4.294,0 0,-13.808 3.51,0 0,13.808 4.294,0 0,3.268 z m 4.273,0 -4,0 5.56,-10.344 0,-6.732 3.536,0 0,6.78 5.563,10.296 -3.905,0 -3.39,-6.71 -3.366,6.71 z m 15.05,-8.416 0,-0.293 c 0,-5.102 3.168,-8.66 7.707,-8.66 4.516,0 7.735,3.607 7.735,8.71 l 0,0.292 c 0,5.1 -3.17,8.66 -7.708,8.66 -4.516,0 -7.734,-3.584 -7.734,-8.71 m 3.632,-0.024 c 0,3.37 1.685,5.468 4.076,5.468 2.37,0 4.078,-2.123 4.078,-5.49 l 0,-0.172 c 0,-3.367 -1.684,-5.467 -4.05,-5.467 -2.37,0 -4.102,2.124 -4.102,5.492 l 0,0.17 z m 24.238,8.443 -11,0 0,-17.078 3.535,0 0,6.758 6.562,0 0,3.242 -6.562,0 0,3.834 7.465,0 0,3.242 z m 10.414,0 -3.535,0 0,-17.078 3.535,0 0,6.953 5.613,0 0,-6.955 3.535,0 0,17.076 -3.535,0 0,-6.854 -5.613,0 0,6.855 z m 22.68,0 -11,0 0,-17.078 11.097,0 0,3.193 -7.588,0 0,3.807 6.588,0 0,3.193 -6.588,0 0,3.69 7.49,0 0,3.192 z m 5.595,0 -3.535,0 0,-17.078 10.438,0 0,3.242 -6.903,0 0,13.834 z m 9.547,-12.176 -2.1,-2.61 c 1.88,-1.753 4.147,-2.51 6.32,-2.51 3.32,0 5.73,1.95 5.73,5.12 l 0,0.05 c 0,2.66 -1.61,3.93 -4.583,5.1 -2.662,1.098 -3.248,1.563 -3.248,2.54 l 0,0.023 c 0,0.878 0.757,1.487 1.98,1.487 1.316,0 2.56,-0.707 3.633,-1.586 l 1.976,2.686 c -1.563,1.414 -3.513,2.096 -5.515,2.096 -3.295,0 -5.586,-2.023 -5.586,-4.997 l 0,-0.05 c 0,-2.93 1.876,-4.075 4.902,-5.247 2.44,-0.926 2.93,-1.463 2.93,-2.32 l 0,-0.022 c 0,-1 -0.83,-1.686 -2.198,-1.686 -1.71,0 -3.1,0.928 -4.246,1.928 m 15.212,12.176 -3.535,0 0,-17.08 3.535,0 0,17.076 z m 5.8,0 -3.245,0 0,-17.08 3.463,0 0,10.318 6.76,-10.318 3.023,0 0,17.076 -3.46,0 0,-9.952 -6.54,9.952 z m 30.616,0 -3.535,0 0,-17.08 3.536,0 0,17.076 z m 28.584,22.35 0,3.268 -12.1,0 0,-3.268 4.295,0 0,-13.81 3.512,0 0,13.81 4.293,0 z m -24.012,-13.81 11.098,0 0,3.193 -7.588,0 0,3.81 6.588,0 0,3.194 -6.588,0 0,3.69 7.492,0 0,3.193 -11.002,0 0,-17.081 z m -5.476,13.81 4.295,0 0,3.268 -12.092,0 0,-3.268 4.292,0 0,-13.81 3.51,0 0,13.81 z m -12.59,-13.81 3.535,0 0,17.074 -3.535,0 0,-17.073 z m -1.324,4.902 0,0.05 c 0,2.66 -1.61,3.928 -4.584,5.1 -2.662,1.098 -3.248,1.563 -3.248,2.54 l 0,0.023 c 0,0.877 0.757,1.486 1.978,1.486 1.318,0 2.563,-0.707 3.637,-1.586 l 1.975,2.685 c -1.56,1.414 -3.51,2.095 -5.512,2.095 -3.295,0 -5.586,-2.023 -5.586,-4.998 l 0,-0.05 c 0,-2.928 1.877,-4.075 4.902,-5.247 2.44,-0.927 2.93,-1.464 2.93,-2.318 l 0,-0.025 c 0,-1 -0.83,-1.684 -2.198,-1.684 -1.708,0 -3.1,0.928 -4.245,1.928 l -2.096,-2.61 a 9.164,9.164 0 0 1 6.318,-2.51 c 3.32,0 5.73,1.95 5.73,5.12 m -12.09,-4.9 -3.632,6.34 c 1.877,0.83 3.168,2.464 3.168,5.052 l 0,0.098 c 0,1.683 -0.512,3.025 -1.44,3.95 -1.07,1.075 -2.658,1.636 -4.634,1.636 l -6.415,0 0,-17.078 3.533,0 0,5.612 2.223,0 3.15,-5.612 4.047,0 z M 245.55,57.88 c 0,-1.54 -0.974,-2.564 -2.78,-2.564 l -2.614,0 0,5.152 2.54,0 c 1.806,0 2.854,-0.853 2.854,-2.562 l 0,-0.026 z M 138.935,55.294 c 0,5.1 -3.17,8.66 -7.71,8.66 -4.514,0 -7.732,-3.583 -7.732,-8.708 l 0,-0.293 c 0,-5.102 3.17,-8.66 7.71,-8.66 4.513,0 7.732,3.607 7.732,8.708 l 0,0.295 z m -3.657,-0.27 c 0,-3.366 -1.685,-5.466 -4.052,-5.466 -2.367,0 -4.1,2.123 -4.1,5.492 l 0,0.17 c 0,3.37 1.684,5.467 4.076,5.467 2.367,0 4.076,-2.123 4.076,-5.49 l 0,-0.172 z m -12.306,8.638 -11,0 0,-17.077 3.535,0 0,6.758 6.562,0 0,3.242 -6.564,0 0,3.834 7.464,0 0,3.24 z M 103.71,46.342 c 2.54,0 4.512,0.95 6.073,2.12 l 0,7.905 -6.464,0 0,-3.073 3.1,0 0,-3.027 c -0.634,-0.465 -1.537,-0.71 -2.54,-0.71 -2.512,0 -4.442,1.98 -4.442,5.493 l 0,0.196 c 0,3.146 1.855,5.37 4.296,5.37 1.636,0 2.637,-0.636 3.54,-1.466 l 2.095,2.758 c -1.56,1.314 -3.194,1.998 -5.586,1.998 -4.637,0 -7.977,-3.633 -7.977,-8.686 l 0,-0.22 c 0,-5.344 3.315,-8.66 7.904,-8.66 m -12.756,0.245 3.023,0 0,17.077 -3.463,0 0,-9.954 -6.54,9.954 -3.243,0 0,-17.077 3.462,0 0,10.32 6.76,-10.32 z m -16.313,0 3.536,0 0,17.075 -3.536,0 0,-17.074 z m -1.724,4.9 0,0.05 c 0,2.662 -1.61,3.93 -4.585,5.1 -2.66,1.1 -3.246,1.564 -3.246,2.54 l 0,0.024 c 0,0.877 0.757,1.486 1.978,1.486 1.318,0 2.563,-0.707 3.636,-1.586 l 1.973,2.685 c -1.56,1.414 -3.51,2.095 -5.512,2.095 -3.294,0 -5.585,-2.023 -5.585,-4.998 l 0,-0.05 c 0,-2.928 1.877,-4.075 4.902,-5.247 2.44,-0.927 2.93,-1.464 2.93,-2.318 l 0,-0.025 c 0,-1 -0.83,-1.684 -2.198,-1.684 -1.71,0 -3.1,0.928 -4.246,1.928 l -2.096,-2.61 a 9.168,9.168 0 0 1 6.318,-2.51 c 3.32,0 5.732,1.95 5.732,5.12 m -23.037,-4.9 10.44,0 0,3.24 -6.905,0 0,13.836 -3.535,0 0,-17.076 z m -13.06,0 11.1,0 0,3.19 -7.59,0 0,3.81 6.588,0 0,3.195 -6.588,0 0,3.69 7.49,0 0,3.193 -11,0 0,-17.078 z m -6.065,0 3.535,0 0,17.075 -3.535,0 0,-6.858 -5.615,0 0,6.858 -3.535,0 0,-17.075 3.535,0 0,6.954 5.615,0 0,-6.956 z m 113.338,5.61 2.223,0 3.15,-5.61 4.045,0 -3.63,6.34 c 1.876,0.83 3.17,2.464 3.17,5.052 l 0,0.098 c 0,1.683 -0.513,3.025 -1.44,3.95 -1.072,1.075 -2.658,1.636 -4.636,1.636 l -6.416,0 0,-17.076 3.535,0 0,5.612 z m 0,3.12 0,5.152 2.54,0 c 1.806,0 2.856,-0.853 2.856,-2.562 l 0,-0.026 c 0,-1.54 -0.977,-2.564 -2.784,-2.564 l -2.613,0 z m 13.666,3.86 0,0.023 c 0,0.877 0.757,1.486 1.978,1.486 1.318,0 2.562,-0.707 3.636,-1.586 l 1.973,2.685 c -1.56,1.414 -3.51,2.095 -5.512,2.095 -3.293,0 -5.584,-2.023 -5.584,-4.998 l 0,-0.05 c 0,-2.928 1.877,-4.075 4.902,-5.247 2.44,-0.927 2.93,-1.464 2.93,-2.318 l 0,-0.025 c 0,-1 -0.83,-1.684 -2.198,-1.684 -1.71,0 -3.1,0.928 -4.246,1.928 l -2.096,-2.61 a 9.166,9.166 0 0 1 6.317,-2.51 c 3.32,0 5.73,1.95 5.73,5.12 l 0,0.05 c 0,2.66 -1.608,3.928 -4.583,5.1 -2.662,1.098 -3.248,1.563 -3.248,2.54 m 21.052,-12.86 c 3.953,0 6.537,2.267 6.537,6.976 l 0,10.37 -3.51,0 0,-10.54 c 0,-2.37 -1.147,-3.54 -2.98,-3.54 -1.83,0 -2.978,1.197 -2.978,3.61 l 0,10.47 -3.535,0 0,-10.442 c 0,-4.61 2.535,-6.902 6.465,-6.902 m 12.22,10.588 6.76,-10.32 3.024,0 0,17.078 -3.46,0 0,-9.954 -6.543,9.954 -3.244,0 0,-17.077 3.463,0 0,10.32 z m 12.376,-10.32 3.536,0 0,17.076 -3.541,0 0,-17.073 z m 13.645,-0.096 5.758,17.174 -3.734,0 -3.61,-11.76 -3.61,11.76 -3.83,0 5.756,-17.174 3.27,0 z m 10.022,3.29 0,3.81 6.588,0 0,3.193 -6.588,0 0,3.69 7.49,0 0,3.193 -11,0 0,-17.079 11.098,0 0,3.192 -7.588,0 z" />
  </g>
  <path
     inkscape:connector-curvature="0"
     style="fill:#f89000;fill-opacity:0.88235294"
     id="path24"
     d="m 131.326,76.156 2.13,0 0,-6.48 2.05,0 0,-1.95 -6.228,0 0,1.95 2.048,0 0,6.48 z m 5.07,0 2.13,0 0,-8.43 -2.13,0 0,8.43 z m 3.41,0 5.753,0 0,-1.902 -3.647,0 0,-1.444 3.243,0 0,-1.795 -3.243,0 0,-1.385 3.598,0 0,-1.9 -5.705,0 0,8.43 z m 8.42,0 2.13,0 0,-6.48 2.05,0 0,-1.95 -6.227,0 0,1.95 2.046,0 0,6.48 z m 8.31,0.157 c 2.227,0 3.848,-1.77 3.848,-4.287 l 0,-0.18 c 0,-2.53 -1.598,-4.276 -3.835,-4.276 -2.227,0 -3.85,1.77 -3.85,4.287 l 0,0.18 c 0,2.53 1.6,4.276 3.836,4.276 z m 0.013,-1.963 c -0.985,0 -1.67,-0.89 -1.67,-2.348 l 0,-0.134 c 0,-1.457 0.674,-2.336 1.656,-2.336 0.983,0 1.67,0.89 1.67,2.348 l 0,0.133 c 0,1.458 -0.664,2.337 -1.658,2.337 z m 6.315,1.94 c 0.84,0 1.54,-0.266 2.013,-0.76 0.51,-0.506 0.757,-1.216 0.757,-2.19 l 0,-5.614 -2.12,0 0,5.54 c 0,0.71 -0.33,1.06 -0.827,1.06 -0.426,0 -0.746,-0.24 -1.054,-0.614 l -1.195,1.468 c 0.507,0.626 1.29,1.108 2.424,1.108 z m 3.922,-0.134 5.753,0 0,-1.902 -3.646,0 0,-1.444 3.244,0 0,-1.795 -3.244,0 0,-1.385 3.6,0 0,-1.9 -5.707,0 0,8.43 z m 6.75,0 2.097,0 0,-4.42 2.864,4.42 1.894,0 0,-8.43 -2.095,0 0,4.24 -2.758,-4.24 -2.003,0 0,8.43 z m 8.07,0 2.13,0 0,-2.19 0.664,-0.88 1.67,3.07 2.487,0 -2.652,-4.84 2.57,-3.59 -2.45,0 -2.286,3.336 0,-3.337 -2.13,0 0,8.43 z" />
  <path
     inkscape:connector-curvature="0"
     style="fill:#f89000;fill-opacity:0.88235294"
     id="path26"
     d="m 188.345,76.156 2.19,0 0.473,-1.517 2.605,0 0.485,1.516 2.237,0 -2.924,-8.478 -2.152,0 -2.912,8.478 z m 3.196,-3.25 0.77,-2.47 0.77,2.47 -1.54,0 z m 1.09,-5.77 1.765,0 0,-1.553 -1.764,0 0,1.553 z m -2.355,0 1.764,0 0,-1.553 -1.765,0 0,1.553 z m 9.385,9.14 c 1.775,0 3.018,-1.01 3.018,-2.65 l 0,-0.023 c 0,-1.433 -0.983,-2.083 -2.557,-2.6 -1.05,-0.398 -1.312,-0.59 -1.312,-0.964 l 0,-0.013 c 0,-0.314 0.272,-0.554 0.758,-0.554 0.675,0 1.36,0.325 1.93,0.77 l 1.076,-1.613 c -0.863,-0.71 -1.845,-1.024 -2.958,-1.024 -1.81,0 -2.96,1.072 -2.96,2.6 l 0,0.037 c 0,1.53 1.102,2.108 2.664,2.65 0.97,0.35 1.22,0.554 1.22,0.89 l 0,0.013 c 0,0.36 -0.296,0.614 -0.865,0.614 -0.804,0 -1.573,-0.385 -2.248,-0.95 l -1.136,1.576 c 0.97,0.855 2.14,1.24 3.372,1.24 z m 3.97,-0.12 2.13,0 0,-8.43 -2.13,0 0,8.43 z m 5.078,0 2.13,0 0,-6.48 2.05,0 0,-1.95 -6.228,0 0,1.95 2.048,0 0,6.48 z m 6.705,0 2.13,0 0,-6.48 2.05,0 0,-1.95 -6.228,0 0,1.95 2.048,0 0,6.48 z m 5.037,0 5.752,0 0,-1.902 -3.646,0 0,-1.444 3.243,0 0,-1.795 -3.245,0 0,-1.385 3.598,0 0,-1.9 -5.705,0 0,8.43 z m 6.75,0 5.386,0 0,-1.95 -3.256,0 0,-6.48 -2.13,0 0,8.43 z m 6.948,0 2.13,0 0,-3.18 2.665,-5.25 -2.32,0 -1.397,3.047 -1.385,-3.047 -2.354,0 2.662,5.274 0,3.156 z m 7.044,0 2.13,0 0,-6.48 2.048,0 0,-1.95 -6.226,0 0,1.95 2.048,0 0,6.48 z m 5.07,0 2.13,0 0,-8.43 -2.13,0 0,8.43 z m 3.41,0 5.753,0 0,-1.902 -3.646,0 0,-1.444 3.242,0 0,-1.795 -3.244,0 0,-1.385 3.598,0 0,-1.9 -5.706,0 0,8.43 z m 8.42,0 2.13,0 0,-6.48 2.05,0 0,-1.95 -6.228,0 0,1.95 2.048,0 0,6.48 z m 5.036,0 5.753,0 0,-1.902 -3.644,0 0,-1.444 3.244,0 0,-1.795 -3.245,0 0,-1.385 3.6,0 0,-1.9 -5.707,0 0,8.43 z m 6.752,0 5.752,0 0,-1.902 -3.646,0 0,-1.444 3.244,0 0,-1.795 -3.244,0 0,-1.385 3.6,0 0,-1.9 -5.707,0 0,8.43 z m 6.75,0 2.095,0 0,-4.42 2.865,4.42 1.894,0 0,-8.43 -2.095,0 0,4.24 -2.76,-4.24 -2,0 0,8.43 z m 10.89,0 5.386,0 0,-1.95 -3.256,0 0,-6.48 -2.13,0 0,8.43 z m 5.627,0 2.19,0 0.474,-1.517 2.606,0 0.485,1.516 2.24,0 -2.925,-8.478 -2.155,0 -2.913,8.478 z m 3.197,-3.25 0.77,-2.47 0.768,2.47 -1.538,0 z m 5.476,3.25 2.13,0 0,-8.43 -2.13,0 0,8.43 z m 5.078,0 2.13,0 0,-6.48 2.05,0 0,-1.95 -6.227,0 0,1.95 2.05,0 0,6.48 z m 8.312,0.157 c 2.224,0 3.846,-1.77 3.846,-4.287 l 0,-0.18 c 0,-2.53 -1.598,-4.276 -3.835,-4.276 -2.224,0 -3.845,1.77 -3.845,4.287 l 0,0.18 c 0,2.53 1.598,4.276 3.835,4.276 z m 0.01,-1.963 c -0.982,0 -1.668,-0.89 -1.668,-2.348 l 0,-0.134 c 0,-1.457 0.675,-2.336 1.657,-2.336 0.982,0 1.667,0.89 1.667,2.348 l 0,0.133 c 0,1.458 -0.663,2.337 -1.657,2.337 z m 7.53,1.927 c 1.775,0 3.018,-1.012 3.018,-2.65 l 0,-0.024 c 0,-1.433 -0.982,-2.083 -2.556,-2.6 -1.054,-0.398 -1.314,-0.59 -1.314,-0.964 l 0,-0.013 c 0,-0.314 0.272,-0.554 0.757,-0.554 0.675,0 1.36,0.325 1.93,0.77 l 1.077,-1.613 c -0.864,-0.71 -1.847,-1.024 -2.96,-1.024 -1.81,0 -2.96,1.072 -2.96,2.6 l 0,0.037 c 0,1.53 1.102,2.108 2.665,2.65 0.97,0.35 1.22,0.554 1.22,0.89 l 0,0.013 c 0,0.36 -0.297,0.614 -0.865,0.614 -0.805,0 -1.575,-0.385 -2.25,-0.95 l -1.136,1.576 c 0.97,0.855 2.143,1.24 3.374,1.24 z m -193.139,14.579 2.158,0 0,-8.358 -2.158,0 0,8.358 z m 3.453,0 2.122,0 0,-4.382 2.902,4.383 1.917,0 0,-8.357 -2.123,0 0,4.2 -2.793,-4.2 -2.026,0 0,8.357 z m 10.98,0.12 c 1.8,0 3.057,-1.003 3.057,-2.627 l 0,-0.025 c 0,-1.42 -0.996,-2.066 -2.59,-2.58 -1.067,-0.393 -1.33,-0.584 -1.33,-0.954 l 0,-0.01 c 0,-0.31 0.275,-0.55 0.766,-0.55 0.684,0 1.38,0.322 1.955,0.764 l 1.09,-1.6 c -0.875,-0.704 -1.87,-1.014 -2.997,-1.014 -1.834,0 -2.997,1.063 -2.997,2.58 l 0,0.035 c 0,1.517 1.113,2.09 2.695,2.628 0.984,0.346 1.235,0.55 1.235,0.883 l 0,0.013 c 0,0.357 -0.298,0.61 -0.874,0.61 -0.815,0 -1.595,-0.384 -2.278,-0.945 l -1.15,1.563 c 0.982,0.848 2.17,1.23 3.416,1.23 z m 5.44,-0.12 2.16,0 0,-6.423 2.074,0 0,-1.935 -6.31,0 0,1.935 2.075,0 0,6.423 z m 5.138,0 2.158,0 0,-8.358 -2.156,0 0,8.358 z m 5.144,0 2.16,0 0,-6.423 2.073,0 0,-1.935 -6.307,0 0,1.935 2.074,0 0,6.423 z m 8.41,0.143 c 2.05,0 3.43,-1.063 3.43,-3.487 l 0,-5.015 -2.183,0 0,5.11 c 0,0.992 -0.48,1.445 -1.235,1.445 -0.745,0 -1.237,-0.477 -1.237,-1.48 l 0,-5.075 -2.17,0 0,5.05 c 0,2.377 1.343,3.45 3.393,3.45 z m 6.273,-0.144 2.16,0 0,-6.423 2.074,0 0,-1.935 -6.307,0 0,1.935 2.074,0 0,6.423 z m 5.138,0 2.158,0 0,-8.358 -2.158,0 0,8.358 z m 7.098,0.155 c 2.254,0 3.897,-1.754 3.897,-4.25 l 0,-0.18 c 0,-2.506 -1.62,-4.237 -3.885,-4.237 -2.254,0 -3.897,1.755 -3.897,4.25 l 0,0.18 c 0,2.507 1.62,4.238 3.887,4.238 z m 0.012,-1.945 c -0.995,0 -1.69,-0.883 -1.69,-2.328 l 0,-0.13 c 0,-1.446 0.683,-2.318 1.678,-2.318 0.995,0 1.69,0.883 1.69,2.33 l 0,0.13 c 0,1.444 -0.67,2.315 -1.678,2.315 z m 4.892,1.79 2.12,0 0,-4.38 2.903,4.382 1.92,0 0,-8.357 -2.124,0 0,4.2 -2.796,-4.203 -2.026,0 0,8.357 z m 8.172,0 5.828,0 0,-1.885 -3.693,0 0,-1.433 3.285,0 0,-1.78 -3.285,0 0,-1.372 3.645,0 0,-1.887 -5.78,0 0,8.358 z m 6.838,0 2.123,0 0,-4.38 2.902,4.382 1.918,0 0,-8.357 -2.123,0 0,4.2 -2.793,-4.203 -2.027,0 0,8.357 z m 11.03,0 2.16,0 0,-3.09 3.19,0 0,-1.85 -3.19,0 0,-1.48 3.548,0 0,-1.936 -5.707,0 0,8.357 z m 10.503,-8.942 1.787,0 0,-1.54 -1.787,0 0,1.54 z m -2.386,0 1.787,0 0,-1.54 -1.787,0 0,1.54 z m 2.086,9.098 c 2.255,0 3.897,-1.754 3.897,-4.25 l 0,-0.18 c 0,-2.506 -1.62,-4.237 -3.885,-4.237 -2.254,0 -3.897,1.755 -3.897,4.25 l 0,0.18 c 0,2.507 1.62,4.238 3.885,4.238 z m 0.012,-1.945 c -0.995,0 -1.69,-0.883 -1.69,-2.328 l 0,-0.13 c 0,-1.446 0.683,-2.318 1.678,-2.318 0.996,0 1.69,0.883 1.69,2.33 l 0,0.13 c 0,1.444 -0.67,2.315 -1.678,2.315 z m 4.89,1.79 2.147,0 0,-2.59 0.768,0 1.427,2.59 2.434,0 -1.725,-3.032 c 0.887,-0.44 1.5,-1.217 1.5,-2.46 l 0,-0.06 c 0,-0.846 -0.265,-1.49 -0.733,-1.957 -0.538,-0.55 -1.39,-0.848 -2.517,-0.848 l -3.297,0 0,8.358 z m 2.147,-4.297 0,-2.185 1.056,0 c 0.72,0 1.175,0.358 1.175,1.074 l 0,0.024 c 0,0.67 -0.432,1.088 -1.163,1.088 l -1.068,0 z m 8.228,4.298 2.723,0 c 2.72,0 4.268,-1.67 4.268,-4.13 l 0,-0.144 c 0,-2.46 -1.533,-4.085 -4.23,-4.085 l -2.758,0 0,8.358 z m 2.782,-6.435 c 1.2,0 2.003,0.705 2.003,2.21 l 0,0.107 c 0,1.492 -0.803,2.197 -2.003,2.197 l -0.623,0 0,-4.512 0.62,0 z m 4.184,6.436 2.218,0 0.48,-1.504 2.638,0 0.49,1.503 2.268,0 -2.962,-8.405 -2.182,0 -2.95,8.405 z m 3.237,-3.224 0.78,-2.448 0.78,2.447 -1.56,0 z m 6.313,3.224 2.158,0 0,-6.423 2.074,0 0,-1.935 -6.307,0 0,1.935 2.077,0 0,6.423 z m 3.634,0 2.22,0 0.48,-1.504 2.637,0 0.49,1.503 2.267,0 -2.96,-8.405 -2.183,0 -2.95,8.405 z m 3.238,-3.224 0.78,-2.448 0.78,2.447 -1.56,0 z m 6.83,3.27 2.073,0 2.83,-8.404 -2.3,0 -1.535,5.206 -1.547,-5.205 -2.35,0 2.83,8.405 z m 5.567,-0.046 5.827,0 0,-1.888 -3.693,0 0,-1.433 3.284,0 0,-1.78 -3.286,0 0,-1.372 3.644,0 0,-1.887 -5.78,0 0,8.358 z m 8.53,0 2.157,0 0,-6.423 2.074,0 0,-1.935 -6.307,0 0,1.935 2.073,0 0,6.423 z m 5.1,0 5.827,0 0,-1.888 -3.693,0 0,-1.433 3.283,0 0,-1.78 -3.285,0 0,-1.372 3.644,0 0,-1.887 -5.78,0 0,8.358 z m 6.838,0 2.122,0 0,-4.382 2.902,4.383 1.918,0 0,-8.359 -2.122,0 0,4.2 -2.793,-4.2 -2.028,0 0,8.357 z m 10.98,0.12 c 1.8,0 3.057,-1.003 3.057,-2.627 l 0,-0.025 c 0,-1.42 -0.996,-2.066 -2.59,-2.58 -1.068,-0.393 -1.33,-0.584 -1.33,-0.954 l 0,-0.01 c 0,-0.31 0.274,-0.55 0.766,-0.55 0.683,0 1.38,0.322 1.954,0.764 l 1.092,-1.6 c -0.876,-0.704 -1.87,-1.014 -2.998,-1.014 -1.835,0 -2.998,1.063 -2.998,2.58 l 0,0.035 c 0,1.517 1.115,2.09 2.698,2.628 0.983,0.346 1.235,0.55 1.235,0.883 l 0,0.013 c 0,0.357 -0.3,0.61 -0.877,0.61 -0.815,0 -1.595,-0.384 -2.278,-0.945 l -1.15,1.563 c 0.982,0.848 2.17,1.23 3.416,1.23 z m 3.985,-0.12 2.158,0 0,-2.173 0.67,-0.87 1.692,3.043 2.518,0 -2.686,-4.8 2.602,-3.558 -2.482,0 -2.314,3.308 0,-3.308 -2.158,0 0,8.358 z" />
  <path
     inkscape:connector-curvature="0"
     style="fill:#f89000;fill-opacity:0.88235294"
     id="path28"
     d="m 321.152,90.856 2.22,0 0.478,-1.504 2.638,0 0.492,1.503 2.266,0 -2.962,-8.405 -2.182,0 -2.95,8.405 z m 3.238,-3.224 0.78,-2.448 0.78,2.447 -1.56,0 z m 5.51,3.224 2.148,0 0,-2.424 0.827,0 c 1.834,-0.024 3.297,-0.98 3.297,-2.986 l 0,-0.046 c 0,-1.876 -1.295,-2.903 -3.273,-2.903 l -3,0 0,8.358 z m 2.148,-4.18 0,-2.34 0.743,0 c 0.78,0 1.225,0.395 1.225,1.16 l 0,0.035 c 0,0.706 -0.456,1.147 -1.21,1.147 l -0.756,0 z m -202.608,19.047 2.723,0 c 2.72,0 4.268,-1.67 4.268,-4.13 l 0,-0.144 c 0,-2.46 -1.533,-4.084 -4.23,-4.084 l -2.758,0 0,8.358 z m 2.782,-6.435 c 1.2,0 2.003,0.705 2.003,2.21 l 0,0.107 c 0,1.492 -0.803,2.196 -2.003,2.196 l -0.623,0 0,-4.511 0.62,0 z m 5.228,6.435 5.828,0 0,-1.886 -3.694,0 0,-1.432 3.286,0 0,-1.78 -3.286,0 0,-1.373 3.646,0 0,-1.887 -5.78,0 0,8.358 z m 6.84,0 2.145,0 0,-2.423 0.827,0 c 1.835,-0.024 3.298,-0.98 3.298,-2.985 l 0,-0.048 c 0,-1.874 -1.295,-2.9 -3.274,-2.9 l -2.997,0 0,8.357 z m 2.145,-4.178 0,-2.34 0.743,0 c 0.78,0 1.224,0.394 1.224,1.158 l 0,0.036 c 0,0.703 -0.456,1.145 -1.212,1.145 l -0.755,0 z m 3.648,4.178 2.22,0 0.478,-1.504 2.64,0 0.49,1.504 2.268,0 -2.962,-8.405 -2.182,0 -2.95,8.405 z m 3.238,-3.223 0.78,-2.448 0.78,2.447 -1.56,0 z m 5.512,3.223 2.147,0 0,-2.59 0.765,0 1.427,2.59 2.434,0 -1.727,-3.032 c 0.887,-0.44 1.5,-1.217 1.5,-2.46 l 0,-0.06 c 0,-0.846 -0.266,-1.49 -0.733,-1.956 -0.54,-0.548 -1.39,-0.847 -2.518,-0.847 l -3.3,0 0,8.358 z m 2.147,-4.298 0,-2.185 1.053,0 c 0.72,0 1.175,0.36 1.175,1.075 l 0,0.024 c 0,0.67 -0.433,1.085 -1.164,1.085 l -1.067,0 z m 7.037,4.298 2.16,0 0,-6.423 2.073,0 0,-1.934 -6.307,0 0,1.934 2.074,0 0,6.424 z m 5.1,0 2.1,0 0,-4.68 1.786,3.08 0.036,0 1.785,-3.103 0,4.704 2.134,0 0,-8.357 -2.23,0 -1.69,3.08 -1.704,-3.08 -2.22,0 0,8.358 z m 9.088,0 5.828,0 0,-1.886 -3.694,0 0,-1.432 3.284,0 0,-1.78 -3.286,0 0,-1.373 3.645,0 0,-1.887 -5.78,0 0,8.358 z m 6.84,0 2.12,0 0,-4.38 2.903,4.38 1.918,0 0,-8.357 -2.122,0 0,4.203 -2.794,-4.204 -2.026,0 0,8.358 z m 9.863,0 2.158,0 0,-6.423 2.074,0 0,-1.934 -6.307,0 0,1.934 2.075,0 0,6.424 z m 11.602,0.156 c 2.255,0 3.898,-1.756 3.898,-4.25 l 0,-0.18 c 0,-2.508 -1.62,-4.24 -3.885,-4.24 -2.254,0 -3.897,1.756 -3.897,4.25 l 0,0.18 c 0,2.508 1.62,4.24 3.885,4.24 z m 0.013,-1.947 c -0.995,0 -1.69,-0.884 -1.69,-2.328 l 0,-0.132 c 0,-1.444 0.683,-2.316 1.678,-2.316 0.997,0 1.693,0.883 1.693,2.328 l 0,0.132 c 0,1.444 -0.672,2.316 -1.68,2.316 z m 4.89,1.79 2.16,0 0,-3.092 3.19,0 0,-1.85 -3.19,0 0,-1.48 3.55,0 0,-1.934 -5.71,0 0,8.358 z m 13.037,0.144 c 1.402,0 2.337,-0.597 3.02,-1.433 l -1.366,-1.384 c -0.384,0.442 -0.816,0.824 -1.535,0.824 -0.973,0 -1.717,-0.824 -1.717,-2.316 l 0,-0.048 c 0,-1.42 0.732,-2.292 1.715,-2.292 0.658,0 1.114,0.358 1.474,0.788 l 1.39,-1.47 c -0.683,-0.8 -1.582,-1.312 -2.9,-1.312 -2.207,0 -3.898,1.683 -3.898,4.262 l 0,0.143 c 0,2.602 1.667,4.24 3.813,4.24 z m 7.214,0.012 c 2.254,0 3.897,-1.756 3.897,-4.25 l 0,-0.18 c 0,-2.508 -1.617,-4.24 -3.883,-4.24 -2.254,0 -3.897,1.756 -3.897,4.25 l 0,0.18 c 0,2.508 1.618,4.24 3.884,4.24 z m 0.012,-1.947 c -0.995,0 -1.69,-0.884 -1.69,-2.328 l 0,-0.132 c 0,-1.444 0.683,-2.316 1.678,-2.316 0.995,0 1.69,0.883 1.69,2.328 l 0,0.132 c 0,1.444 -0.67,2.316 -1.678,2.316 z m 4.89,1.79 2.1,0 0,-4.68 1.786,3.08 0.036,0 1.786,-3.103 0,4.704 2.135,0 0,-8.357 -2.233,0 -1.69,3.08 -1.703,-3.08 -2.218,0 0,8.358 z m 9.088,0 2.146,0 0,-2.421 0.827,0 c 1.835,-0.024 3.298,-0.98 3.298,-2.985 l 0,-0.048 c 0,-1.874 -1.295,-2.9 -3.274,-2.9 l -2.995,0 0,8.357 z m 2.146,-4.178 0,-2.34 0.743,0 c 0.78,0 1.223,0.394 1.223,1.158 l 0,0.036 c 0,0.703 -0.455,1.145 -1.21,1.145 l -0.756,0 z m 8.26,4.322 c 2.05,0 3.43,-1.063 3.43,-3.486 l 0,-5.014 -2.184,0 0,5.11 c 0,0.99 -0.48,1.445 -1.235,1.445 -0.74,0 -1.233,-0.477 -1.233,-1.48 l 0,-5.074 -2.17,0 0,5.05 c 0,2.376 1.343,3.45 3.393,3.45 z m 6.273,-0.144 2.158,0 0,-6.421 2.077,0 0,-1.934 -6.308,0 0,1.934 2.074,0 0,6.424 z m 5.1,0 5.828,0 0,-1.886 -3.69,0 0,-1.432 3.285,0 0,-1.78 -3.286,0 0,-1.373 3.644,0 0,-1.887 -5.78,0 0,8.358 z m 6.84,0 2.146,0 0,-2.59 0.765,0 1.427,2.59 2.434,0 -1.726,-3.03 c 0.888,-0.442 1.5,-1.218 1.5,-2.46 l 0,-0.06 c 0,-0.847 -0.264,-1.492 -0.732,-1.957 -0.54,-0.548 -1.39,-0.847 -2.518,-0.847 l -3.298,0 0,8.357 z m 2.146,-4.298 0,-2.183 1.053,0 c 0.72,0 1.175,0.36 1.175,1.075 l 0,0.024 c 0,0.67 -0.433,1.085 -1.164,1.085 l -1.064,0 z m 11.033,4.418 c 1.8,0 3.058,-1.003 3.058,-2.627 l 0,-0.023 c 0,-1.42 -0.993,-2.066 -2.59,-2.58 -1.065,-0.393 -1.33,-0.584 -1.33,-0.955 l 0,-0.012 c 0,-0.31 0.277,-0.55 0.768,-0.55 0.684,0 1.38,0.324 1.955,0.765 l 1.09,-1.6 c -0.874,-0.703 -1.87,-1.013 -2.997,-1.013 -1.834,0 -2.998,1.062 -2.998,2.58 l 0,0.034 c 0,1.518 1.116,2.09 2.698,2.628 0.984,0.346 1.235,0.55 1.235,0.884 l 0,0.01 c 0,0.36 -0.3,0.61 -0.874,0.61 -0.815,0 -1.595,-0.383 -2.278,-0.944 l -1.15,1.564 c 0.982,0.848 2.17,1.23 3.416,1.23 z m 7.537,0.024 c 1.402,0 2.337,-0.597 3.02,-1.433 l -1.366,-1.384 c -0.384,0.442 -0.816,0.824 -1.535,0.824 -0.974,0 -1.717,-0.824 -1.717,-2.316 l 0,-0.048 c 0,-1.42 0.73,-2.292 1.715,-2.292 0.658,0 1.114,0.358 1.474,0.788 l 1.39,-1.47 c -0.683,-0.8 -1.582,-1.312 -2.9,-1.312 -2.208,0 -3.898,1.683 -3.898,4.262 l 0,0.143 c 0,2.602 1.666,4.24 3.813,4.24 z m 3.862,-0.144 2.158,0 0,-8.357 -2.158,0 0,8.358 z m 3.454,0 5.827,0 0,-1.886 -3.693,0 0,-1.432 3.286,0 0,-1.78 -3.286,0 0,-1.373 3.645,0 0,-1.887 -5.78,0 0,8.358 z m 6.838,0 2.123,0 0,-4.38 2.9,4.38 1.92,0 0,-8.357 -2.122,0 0,4.203 -2.794,-4.204 -2.025,0 0,8.358 z m 11.746,0.144 c 1.404,0 2.34,-0.597 3.023,-1.433 l -1.367,-1.384 c -0.384,0.442 -0.816,0.824 -1.535,0.824 -0.97,0 -1.713,-0.824 -1.713,-2.316 l 0,-0.048 c 0,-1.42 0.732,-2.292 1.715,-2.292 0.66,0 1.116,0.358 1.476,0.788 l 1.39,-1.47 c -0.683,-0.8 -1.582,-1.312 -2.9,-1.312 -2.207,0 -3.898,1.683 -3.898,4.262 l 0,0.143 c 0,2.602 1.667,4.24 3.813,4.24 z m 3.828,-0.144 5.828,0 0,-1.886 -3.693,0 0,-1.432 3.285,0 0,-1.78 -3.285,0 0,-1.373 3.645,0 0,-1.887 -5.78,0 0,8.358 z" />
</svg>
